<svg xmlns="http://www.w3.org/2000/svg" width="24" height="24" viewBox="0 0 24 24" fill="none">
  <path d="M23.8372 5.14419C22.9659 5.54027 22.0266 5.80055 21.0534 5.92503C22.0492 5.32525 22.8187 4.37466 23.1809 3.23168C22.2416 3.79751 21.2005 4.19359 20.1028 4.41992C19.2087 3.44669 17.9526 2.88086 16.5267 2.88086C13.8673 2.88086 11.6945 5.05365 11.6945 7.7357C11.6945 8.12046 11.7398 8.49391 11.819 8.84473C7.79025 8.64103 4.20288 6.70588 1.81507 3.77487C1.39636 4.48782 1.15871 5.32525 1.15871 6.20795C1.15871 7.89413 2.00745 9.38792 3.32018 10.2367C2.5167 10.2367 1.7698 10.0103 1.11344 9.67084V9.70479C1.11344 12.0587 2.7883 14.0277 5.00636 14.4691C4.29424 14.664 3.54662 14.6911 2.82225 14.5483C3.12962 15.513 3.73158 16.3572 4.54353 16.9621C5.35548 17.567 6.33657 17.9022 7.34891 17.9207C5.63288 19.2792 3.50577 20.0135 1.31714 20.0029C0.932373 20.0029 0.547607 19.9803 0.162842 19.935C2.313 21.3157 4.87056 22.1191 7.60919 22.1191C16.5267 22.1191 21.4268 14.7181 21.4268 8.30153C21.4268 8.08651 21.4268 7.88281 21.4155 7.6678C22.3661 6.9888 23.1809 6.12873 23.8372 5.14419Z" fill="#9BA9FA"/>
</svg>